<svg xmlns="http://www.w3.org/2000/svg" width="355" height="354"><path fill="#05081a" d="M158.5-.5h37c60.54 8.182 106.373 38.515 137.5 91 11.322 21.129 18.489 43.462 21.5 67v38c-12.235 77.741-55.901 128.574-131 152.5a422.819 422.819 0 0 1-28 5.5h-37c-66.568-9.699-114.735-44.699-144.5-105-7.201-17.148-12.034-34.815-14.5-53v-38C11.703 79.787 55.37 28.953 130.5 5a422.993 422.993 0 0 1 28-5.5Z" style="opacity:.995"/><path fill="#fcfcfd" d="M142.5 27.5c23.336-.167 46.669 0 70 .5 4.431 1.63 8.264 4.13 11.5 7.5a132.402 132.402 0 0 1 8 21 9316.049 9316.049 0 0 1 54 181c-21.084-11.25-43.418-18.917-67-23-12.34-41.685-24.673-83.351-37-125-2.496-3.502-5.329-3.835-8.5-1a6767.158 6767.158 0 0 0-37 126c-23.922 3.585-46.422 11.251-67.5 23l-.5-1.5A33337.606 33337.606 0 0 0 129 39.5c2.85-5.986 7.35-9.986 13.5-12Z" style="opacity:1"/><path fill="#fb5c01" d="M126.5 240.5c4.82 6.429 11.154 10.929 19 13.5 24.404 7.433 48.737 7.099 73-1a45.457 45.457 0 0 0 11-6.5c5.441 18.522.441 34.022-15 46.5a226.624 226.624 0 0 1-17 11c-11.417 9.014-14.084 20.181-8 33.5l-1 1c-17.269-9.879-24.436-24.879-21.5-45-2.729-9.264-8.896-12.764-18.5-10.5-6.116 2.451-9.616 6.951-10.5 13.5-6.806-7.41-11.139-16.077-13-26-1.028-10.147-.528-20.147 1.5-30Z" style="opacity:1"/></svg>