<svg xmlns="http://www.w3.org/2000/svg" width="256" height="204" preserveAspectRatio="xMidYMid" viewBox="0 0 256 204"><path fill="#7E13F8" d="M53.2 0a25.5 25.5 0 0 0-25 26.6c.5 13.4-.1 30.6-4.4 44.7C19.4 85.4 12 94.3 0 95.5v13c12 1 19.4 10 23.8 24.1 4.3 14.1 4.9 31.4 4.4 44.7a25.5 25.5 0 0 0 25 26.6h149.6a25.5 25.5 0 0 0 25-26.6c-.5-13.3.1-30.6 4.5-44.7 4.3-14 11.7-23 23.7-24.2v-13c-12-1-19.4-10-23.7-24.1-4.4-14-5-31.3-4.5-44.6a25.5 25.5 0 0 0-25-26.7H53.2Zm120.4 125.5c0 19.1-14.3 30.7-38 30.7H95.6a4.3 4.3 0 0 1-4.4-4.3V52a4.3 4.3 0 0 1 4.4-4.4h40c19.7 0 32.6 10.7 32.6 27 0 11.6-8.7 21.9-19.8 23.7v.6c15.1 1.7 25.3 12.1 25.3 26.5Zm-42.3-64h-23v32.4h19.4c15 0 23.2-6 23.2-16.8 0-10-7.1-15.6-19.6-15.6Zm-23 45.2v35.7h23.8c15.6 0 23.8-6.2 23.8-18 0-11.6-8.4-17.7-24.8-17.7h-22.7Z"/></svg>