<svg xmlns="http://www.w3.org/2000/svg" width="800" height="800" viewBox="0 0 24 24"><path fill="#0DB7ED" fill-rule="evenodd" d="M7 14.9H7a.2.2 0 1 0 .2.3.4.4 0 1 1-.4-.3Zm0 1.2a.7.7 0 1 1 0-1.5.7.7 0 0 1 0 1.5Zm13.4-5c-2.1 5.7-7 8.2-12.6 8.2A8 8 0 0 1 1.6 17a21.2 21.2 0 0 0 2.1 0h.1c.8 0 1.4-.2 1.9-.4H6a.2.2 0 0 0-.1-.4c-.7.2-1.6.4-2.8.4H1.3l-.4-.6-.2-.4a6.9 6.9 0 0 1-.7-3.8h16.4c1.3 0 2.7-.5 3.3-1-1.1-1-1-3.1-.3-4 .6.6 1.6 1.6 1.4 3 .8-.4 2.2-.6 3.2 0-.7 1.3-2.1 1.6-3.6 1.5Zm-18.1.2h2.2V9.1H2.3v2.2Zm2.5 0H7V9.1H4.8v2.2Zm0-2.5H7V6.6H4.8v2.2Zm2.6 2.5h2.2V9.1H7.4v2.2Zm0-2.5h2.2V6.6H7.4v2.2Zm2.5 2.5h2.2V9.1H10v2.2Zm0-2.5h2.2V6.6H10v2.2Zm0-2.6h2.2V4H10v2.2Zm2.6 5.1h2.2V9.1h-2.2v2.2Z"/></svg>