<svg xmlns="http://www.w3.org/2000/svg" viewBox="-2.4 -2.4 28.8 28.8"><rect width="28.8" height="28.8" x="-2.4" y="-2.4" fill="#f7f7f7" stroke-width="0" rx="14.4"/><path d="M24 18.6a1.5 1.5 0 0 1-1.9-.7L18.7 13l-.5-.7-4 5.5a1.5 1.5 0 0 1-1.8.7l5.1-7-4.8-6.2a1.6 1.6 0 0 1 2 .7l3.5 4.8 3.6-4.8a1.4 1.4 0 0 1 1.8-.7L21.7 8l-2.5 3.3a.7.7 0 0 0 0 1l4.8 6.4zm-24-7 .4-2.1c1.2-4.1 5.9-5.8 9.1-3.3 2 1.5 2.4 3.6 2.3 6H1C1 16.4 4 19 8 17.7a4 4 0 0 0 2.6-2.9c.2-.6.5-.8 1.2-.6a5.4 5.4 0 0 1-2.6 4 6.3 6.3 0 0 1-7.3-1A6.6 6.6 0 0 1 0 13.5v-.7a88.3 88.3 0 0 1-.1-1.1zm1.1-.3h9.7c0-3-2-5.3-4.6-5.3-2.9 0-5 2.1-5 5.3z"/></svg>