<svg xmlns="http://www.w3.org/2000/svg" xmlns:xlink="http://www.w3.org/1999/xlink" width="256" height="351" preserveAspectRatio="xMidYMid" viewBox="0 0 256 351"><defs><filter id="b" width="200%" height="200%" x="-50%" y="-50%" filterUnits="objectBoundingBox"><feGaussianBlur in="SourceAlpha" result="shadowBlurInner1" stdDeviation="17.5"/><feOffset in="shadowBlurInner1" result="shadowOffsetInner1"/><feComposite in="shadowOffsetInner1" in2="SourceAlpha" k2="-1" k3="1" operator="arithmetic" result="shadowInnerInner1"/><feColorMatrix in="shadowInnerInner1" values="0 0 0 0 0 0 0 0 0 0 0 0 0 0 0 0 0 0 0.06 0"/></filter><filter id="d" width="200%" height="200%" x="-50%" y="-50%" filterUnits="objectBoundingBox"><feGaussianBlur in="SourceAlpha" result="shadowBlurInner1" stdDeviation="3.5"/><feOffset dx="1" dy="-9" in="shadowBlurInner1" result="shadowOffsetInner1"/><feComposite in="shadowOffsetInner1" in2="SourceAlpha" k2="-1" k3="1" operator="arithmetic" result="shadowInnerInner1"/><feColorMatrix in="shadowInnerInner1" values="0 0 0 0 0 0 0 0 0 0 0 0 0 0 0 0 0 0 0.09 0"/></filter><path id="a" d="m1.3 280.7 1.6-3.1 99.3-188.5L58.1 5.6C54.4-1.3 45 .5 43.9 8.2L1.3 280.7Z"/><path id="c" d="m134.4 149 32-32.8-32-61c-3-5.8-10.4-6.4-13.4-.6l-17.7 34-.6 1.8 31.7 58.6Z"/></defs><path fill="#FFC24A" d="m0 283 2.1-3L102.5 89.5l.2-2L58.5 4.4A8.2 8.2 0 0 0 43 7L0 283Z"/><use xlink:href="#a" fill="#FFA712" fill-rule="evenodd"/><use xlink:href="#a" filter="url(#b)"/><path fill="#F4BD62" d="m135 150.4 33-33.8-33-62.9c-3.1-6-11.9-6-15 0l-17.6 33.6V90l32.6 60.3Z"/><use xlink:href="#c" fill="#FFA50E" fill-rule="evenodd"/><use xlink:href="#c" filter="url(#d)"/><path fill="#F6820C" d="m0 283 1-1 3.5-1.4 128.4-128 1.7-4.4-32-61.1z"/><path fill="#FDE068" d="m139.1 347.6 116.3-64.9-33.2-204.5a8 8 0 0 0-13.5-4.3L0 283l115.6 64.5a24.1 24.1 0 0 0 23.5 0"/><path fill="#FCCA3F" d="m254.4 282.2-33-203c-1-6.3-7.6-9-12.1-4.4L1.3 282.6l114.3 64a24 24 0 0 0 23.4 0l115.4-64.4Z"/><path fill="#EEAB37" d="M139.1 345.6a24.1 24.1 0 0 1-23.5 0L1 282l-.9 1 115.6 64.5a24.1 24.1 0 0 0 23.5 0l116.3-64.8-.3-1.7-116 64.6Z"/></svg>