<svg xmlns="http://www.w3.org/2000/svg" viewBox="0 49.4 512 399.4"><g fill="none" fill-rule="evenodd"><g fill-rule="nonzero"><path fill="#4285f4" d="M35 448.8h81.4V251L0 163.7V414c0 19.3 15.6 35 35 35z"/><path fill="#34a853" d="M395.6 448.8h81.5c19.3 0 34.9-15.6 34.9-34.9V163.7L395.6 251z"/><path fill="#fbbc04" d="M395.6 99.7V251L512 163.7v-46.5a52.4 52.4 0 0 0-83.8-42z"/></g><path fill="#ea4335" d="M116.4 251V99.7L256 204.5 395.6 99.7V251L256 355.7z"/><path fill="#c5221f" fill-rule="nonzero" d="M0 117.2v46.5L116.4 251V99.7L83.8 75.3A52.4 52.4 0 0 0 0 117.2z"/></g></svg>
