<svg xmlns="http://www.w3.org/2000/svg" xmlns:xlink="http://www.w3.org/1999/xlink" width="256" height="292" viewBox="0 0 256 292"><defs><linearGradient id="a" x1="68.2%" x2="27.8%" y1="17.5%" y2="89.8%"><stop offset="0%" stop-color="#41873F"/><stop offset="32.9%" stop-color="#418B3D"/><stop offset="63.5%" stop-color="#419637"/><stop offset="93.2%" stop-color="#3FA92D"/><stop offset="100%" stop-color="#3FAE2A"/></linearGradient><linearGradient id="c" x1="43.3%" x2="159.2%" y1="55.2%" y2="-18.3%"><stop offset="13.8%" stop-color="#41873F"/><stop offset="40.3%" stop-color="#54A044"/><stop offset="71.4%" stop-color="#66B848"/><stop offset="90.8%" stop-color="#6CC04A"/></linearGradient><linearGradient id="f" x1="-4.4%" x2="101.5%" y1="50%" y2="50%"><stop offset="9.2%" stop-color="#6CC04A"/><stop offset="28.6%" stop-color="#66B848"/><stop offset="59.7%" stop-color="#54A044"/><stop offset="86.2%" stop-color="#41873F"/></linearGradient><path id="b" d="M135 1.8a14 14 0 0 0-14 0L6.9 67.8c-4.4 2.4-6.8 7-6.8 12V212c0 4.8 2.7 9.5 6.8 11.9l114.3 66a14 14 0 0 0 13.8 0l114.3-66c4.4-2.4 6.8-7 6.8-12V79.8c0-4.8-2.7-9.5-6.8-11.9L135 1.8Z"/><path id="e" d="M135 1.8a14 14 0 0 0-14 0L6.9 67.8c-4.4 2.4-6.8 7-6.8 12V212c0 4.8 2.7 9.5 6.8 11.9l114.3 66a14 14 0 0 0 13.8 0l114.3-66c4.4-2.4 6.8-7 6.8-12V79.8c0-4.8-2.7-9.5-6.8-11.9L135 1.8Z"/></defs><path fill="url(#a)" d="M135 1.8a14 14 0 0 0-14 0L6.9 67.8c-4.4 2.4-6.8 7-6.8 12V212c0 4.8 2.7 9.5 6.8 11.9l114.3 66a14 14 0 0 0 13.8 0l114.3-66c4.4-2.4 6.8-7 6.8-12V79.8c0-4.8-2.7-9.5-6.8-11.9L135 1.8Z"/><mask id="d" fill="#fff"><use xlink:href="#b"/></mask><path fill="url(#c)" d="m249.5 67.8-114.8-66L131 .5 2.4 220.9c1.1 1.4 2.5 2.5 3.8 3.3l114.9 66c3.2 1.8 7 2.4 10.6 1.3l120.8-221c-.8-1-2-1.9-3-2.7Z" mask="url(#d)"/><mask id="g" fill="#fff"><use xlink:href="#e"/></mask><path fill="url(#f)" d="M249.8 223.9c3.2-1.9 5.7-5.2 6.7-8.7L130.5.2c-3.2-.5-6.7-.3-9.7 1.6L6.8 67.5l123 224.3a19 19 0 0 0 5.1-1.7L249.8 224Z" mask="url(#g)"/></svg>