<svg xmlns="http://www.w3.org/2000/svg" width="256" height="154" preserveAspectRatio="xMidYMid" viewBox="0 0 256 154"><defs><linearGradient id="a" x1="-2.8%" x2="100%" y1="32%" y2="67.6%"><stop offset="0%" stop-color="#2298BD"/><stop offset="100%" stop-color="#0ED7B5"/></linearGradient></defs><path fill="url(#a)" d="M128 0C93.9 0 72.5 17 64 51.2c12.8-17 27.7-23.5 44.8-19.2 9.7 2.4 16.7 9.5 24.4 17.3 12.6 12.8 27 27.5 58.8 27.5 34.1 0 55.5-17 64-51.2-12.8 17-27.7 23.5-44.8 19.2-9.7-2.4-16.7-9.5-24.4-17.3C174.2 14.7 159.8 0 128 0ZM64 76.8c-34.1 0-55.5 17-64 51.2 12.8-17 27.7-23.5 44.8-19.2 9.7 2.4 16.7 9.5 24.4 17.3 12.6 12.8 27 27.5 58.8 27.5 34.1 0 55.5-17 64-51.2-12.8 17-27.7 23.5-44.8 19.2-9.7-2.4-16.7-9.5-24.4-17.3-12.6-12.8-27-27.5-58.8-27.5Z"/></svg>