<svg xmlns="http://www.w3.org/2000/svg" width="256" height="256" preserveAspectRatio="xMidYMid" viewBox="0 0 256 256"><path fill="#3178C6" d="M20 0h216c11 0 20 9 20 20v216c0 11-9 20-20 20H20c-11 0-20-9-20-20V20C0 9 9 0 20 0Z"/><path fill="#FFF" d="M150.5 200.5V228c4.5 2.3 9.8 4 16 5.2a105 105 0 0 0 38.2-.2c6-1.3 11.2-3.4 15.7-6.3a31.9 31.9 0 0 0 14.6-28.7c0-5-.7-9.4-2.2-13.2a30.7 30.7 0 0 0-6.5-10c-2.8-3-6.2-5.6-10.2-8-4-2.3-8.4-4.5-13.3-6.6L193 156a49.5 49.5 0 0 1-7.3-4.3c-2-1.5-3.6-3-4.7-4.7a9.8 9.8 0 0 1-1.6-5.6c0-1.9.5-3.6 1.4-5.1s2.4-2.8 4.2-4c1.8-1 4-1.9 6.5-2.5a54.8 54.8 0 0 1 23.7 1.2 53.7 53.7 0 0 1 7.6 2.8 41.7 41.7 0 0 1 6.8 3.8v-25.9a67.5 67.5 0 0 0-13.8-3.5c-5-.8-10.7-1.2-17.2-1.2s-12.8.7-18.6 2.1c-5.9 1.4-11 3.6-15.5 6.6a33 33 0 0 0-10.6 11.5 33.5 33.5 0 0 0-3.9 16.6c0 8.2 2.4 15.2 7.1 21 4.8 5.8 12 10.8 21.7 14.8a291.5 291.5 0 0 1 10.6 4.6c3.3 1.5 6.1 3 8.5 4.6 2.4 1.6 4.3 3.4 5.7 5.3 1.3 1.9 2 4 2 6.5a9.9 9.9 0 0 1-1.3 5c-.8 1.4-2.1 2.8-3.9 3.9-1.8 1.1-4 2-6.6 2.6a52.5 52.5 0 0 1-43.3-11.7Zm-46-68.8H140V109H41v22.7h35.3V233h28.2V131.7Z"/></svg>